<?xml version="1.0" encoding="UTF-8" standalone="no"?>
<svg
   xmlns:dc="http://purl.org/dc/elements/1.1/"
   xmlns:cc="http://creativecommons.org/ns#"
   xmlns:rdf="http://www.w3.org/1999/02/22-rdf-syntax-ns#"
   xmlns:svg="http://www.w3.org/2000/svg"
   xmlns="http://www.w3.org/2000/svg"
   xmlns:sodipodi="http://sodipodi.sourceforge.net/DTD/sodipodi-0.dtd"
   xmlns:inkscape="http://www.inkscape.org/namespaces/inkscape"
   version="1.1"
   id="svg2"
   xml:space="preserve"
   width="277.33334"
   height="36.666668"
   viewBox="0 0 277.33334 36.666668"
   sodipodi:docname="Logo_intelitrader_whitebg1.ai"><metadata
     id="metadata8"><rdf:RDF><cc:Work
         rdf:about=""><dc:format>image/svg+xml</dc:format><dc:type
           rdf:resource="http://purl.org/dc/dcmitype/StillImage" /></cc:Work></rdf:RDF></metadata><defs
     id="defs6"><clipPath
       clipPathUnits="userSpaceOnUse"
       id="clipPath18"><path
         d="M 0,27.5 H 208 V 0 H 0 Z"
         id="path16" /></clipPath></defs><sodipodi:namedview
     pagecolor="#ffffff"
     bordercolor="#666666"
     borderopacity="1"
     objecttolerance="10"
     gridtolerance="10"
     guidetolerance="10"
     inkscape:pageopacity="0"
     inkscape:pageshadow="2"
     inkscape:window-width="640"
     inkscape:window-height="480"
     id="namedview4" /><g
     id="g10"
     inkscape:groupmode="layer"
     inkscape:label="Logo_intelitrader_whitebg1"
     transform="matrix(1.3333333,0,0,-1.3333333,0,36.666667)"><g
       id="g12"><g
         id="g14"
         clip-path="url(#clipPath18)"><g
           id="g20"
           transform="translate(190.7607,4.1689)"><path
             d="m 0,0 c 0,-0.439 -0.358,-0.796 -0.796,-0.796 h -0.795 c -0.438,0 -0.799,0.357 -0.799,0.796 v 0.8 c 0,0.438 0.361,0.792 0.799,0.792 h 0.795 C -0.358,1.592 0,1.238 0,0.8 Z"
             style="fill:#fe7b1d;fill-opacity:1;fill-rule:nonzero;stroke:none"
             id="path22" /></g><g
           id="g24"
           transform="translate(202.6729,4.167)"><path
             d="m 0,0 c 0,-0.439 -0.356,-0.797 -0.795,-0.797 h -0.799 c -0.439,0 -0.796,0.358 -0.796,0.797 v 0.797 c 0,0.439 0.357,0.794 0.796,0.794 h 0.799 C -0.356,1.591 0,1.236 0,0.797 Z"
             style="fill:#fe7b1d;fill-opacity:1;fill-rule:nonzero;stroke:none"
             id="path26" /></g><g
           id="g28"
           transform="translate(190.7607,7.1465)"><path
             d="m 0,0 c 0,-0.439 -0.358,-0.798 -0.796,-0.798 h -0.795 c -0.438,0 -0.799,0.359 -0.799,0.798 v 0.797 c 0,0.442 0.361,0.797 0.799,0.797 h 0.795 C -0.358,1.594 0,1.239 0,0.797 Z"
             style="fill:#fe7b1d;fill-opacity:1;fill-rule:nonzero;stroke:none"
             id="path30" /></g><g
           id="g32"
           transform="translate(202.6729,7.1416)"><path
             d="m 0,0 c 0,-0.438 -0.356,-0.799 -0.795,-0.799 h -0.799 c -0.439,0 -0.796,0.361 -0.796,0.799 v 0.797 c 0,0.444 0.357,0.798 0.796,0.798 h 0.799 C -0.356,1.595 0,1.241 0,0.797 Z"
             style="fill:#fe7b1d;fill-opacity:1;fill-rule:nonzero;stroke:none"
             id="path34" /></g><g
           id="g36"
           transform="translate(190.7607,10.126)"><path
             d="m 0,0 c 0,-0.445 -0.358,-0.798 -0.796,-0.798 h -0.795 c -0.438,0 -0.799,0.353 -0.799,0.798 v 0.791 c 0,0.442 0.361,0.797 0.799,0.797 h 0.795 C -0.358,1.588 0,1.233 0,0.791 Z"
             style="fill:#fe7b1d;fill-opacity:1;fill-rule:nonzero;stroke:none"
             id="path38" /></g><g
           id="g40"
           transform="translate(202.6729,10.1221)"><path
             d="m 0,0 c 0,-0.443 -0.356,-0.797 -0.795,-0.797 h -0.799 c -0.439,0 -0.796,0.354 -0.796,0.797 v 0.795 c 0,0.44 0.357,0.795 0.796,0.795 h 0.799 C -0.356,1.59 0,1.235 0,0.795 Z"
             style="fill:#fe7b1d;fill-opacity:1;fill-rule:nonzero;stroke:none"
             id="path42" /></g><g
           id="g44"
           transform="translate(190.7607,13.1006)"><path
             d="m 0,0 c 0,-0.438 -0.358,-0.798 -0.796,-0.798 h -0.795 c -0.438,0 -0.799,0.36 -0.799,0.798 v 0.798 c 0,0.434 0.361,0.797 0.799,0.797 h 0.795 C -0.358,1.595 0,1.232 0,0.798 Z"
             style="fill:#fe7b1d;fill-opacity:1;fill-rule:nonzero;stroke:none"
             id="path46" /></g><g
           id="g48"
           transform="translate(193.7373,13.1006)"><path
             d="m 0,0 c 0,-0.438 -0.354,-0.798 -0.798,-0.798 h -0.794 c -0.437,0 -0.796,0.36 -0.796,0.798 v 0.798 c 0,0.434 0.359,0.797 0.796,0.797 h 0.794 C -0.354,1.595 0,1.232 0,0.798 Z"
             style="fill:#fe7b1d;fill-opacity:1;fill-rule:nonzero;stroke:none"
             id="path50" /></g><g
           id="g52"
           transform="translate(196.7188,13.0957)"><path
             d="m 0,0 c 0,-0.438 -0.358,-0.797 -0.797,-0.797 h -0.794 c -0.44,0 -0.8,0.359 -0.8,0.797 v 0.798 c 0,0.436 0.36,0.798 0.8,0.798 h 0.794 C -0.358,1.596 0,1.234 0,0.798 Z"
             style="fill:#fe7b1d;fill-opacity:1;fill-rule:nonzero;stroke:none"
             id="path54" /></g><g
           id="g56"
           transform="translate(199.6953,13.0957)"><path
             d="m 0,0 c 0,-0.438 -0.355,-0.797 -0.797,-0.797 h -0.796 c -0.435,0 -0.798,0.359 -0.798,0.797 v 0.798 c 0,0.436 0.363,0.798 0.798,0.798 h 0.796 C -0.355,1.596 0,1.234 0,0.798 Z"
             style="fill:#fe7b1d;fill-opacity:1;fill-rule:nonzero;stroke:none"
             id="path58" /></g><g
           id="g60"
           transform="translate(190.7607,16.0811)"><path
             d="m 0,0 c 0,-0.446 -0.358,-0.798 -0.796,-0.798 h -0.795 c -0.438,0 -0.799,0.352 -0.799,0.798 v 0.792 c 0,0.438 0.361,0.797 0.799,0.797 h 0.795 C -0.358,1.589 0,1.23 0,0.792 Z"
             style="fill:#fe7b1d;fill-opacity:1;fill-rule:nonzero;stroke:none"
             id="path62" /></g><g
           id="g64"
           transform="translate(202.6689,16.0811)"><path
             d="m 0,0 c 0,-0.446 -0.356,-0.798 -0.797,-0.798 h -0.797 c -0.437,0 -0.794,0.352 -0.794,0.798 v 0.792 c 0,0.438 0.357,0.797 0.794,0.797 h 0.797 C -0.356,1.589 0,1.23 0,0.792 Z"
             style="fill:#fe7b1d;fill-opacity:1;fill-rule:nonzero;stroke:none"
             id="path66" /></g><g
           id="g68"
           transform="translate(190.7607,19.0537)"><path
             d="m 0,0 c 0,-0.442 -0.358,-0.795 -0.796,-0.795 h -0.795 c -0.438,0 -0.799,0.353 -0.799,0.795 v 0.799 c 0,0.436 0.361,0.798 0.799,0.798 h 0.795 C -0.358,1.597 0,1.235 0,0.799 Z"
             style="fill:#fe7b1d;fill-opacity:1;fill-rule:nonzero;stroke:none"
             id="path70" /></g><g
           id="g72"
           transform="translate(202.6689,19.0537)"><path
             d="m 0,0 c 0,-0.442 -0.356,-0.795 -0.797,-0.795 h -0.797 c -0.437,0 -0.794,0.353 -0.794,0.795 v 0.799 c 0,0.436 0.357,0.798 0.794,0.798 h 0.797 C -0.356,1.597 0,1.235 0,0.799 Z"
             style="fill:#fe7b1d;fill-opacity:1;fill-rule:nonzero;stroke:none"
             id="path74" /></g><g
           id="g76"
           transform="translate(190.7607,22.0293)"><path
             d="m 0,0 c 0,-0.438 -0.358,-0.792 -0.796,-0.792 h -0.795 c -0.438,0 -0.799,0.354 -0.799,0.792 v 0.798 c 0,0.44 0.361,0.798 0.799,0.798 h 0.795 C -0.358,1.596 0,1.238 0,0.798 Z"
             style="fill:#fe7b1d;fill-opacity:1;fill-rule:nonzero;stroke:none"
             id="path78" /></g><g
           id="g80"
           transform="translate(193.7373,22.0293)"><path
             d="m 0,0 c 0,-0.438 -0.354,-0.792 -0.798,-0.792 h -0.794 c -0.437,0 -0.796,0.354 -0.796,0.792 v 0.798 c 0,0.44 0.359,0.798 0.796,0.798 h 0.794 C -0.354,1.596 0,1.238 0,0.798 Z"
             style="fill:#fe7b1d;fill-opacity:1;fill-rule:nonzero;stroke:none"
             id="path82" /></g><g
           id="g84"
           transform="translate(196.7158,22.0293)"><path
             d="m 0,0 c 0,-0.438 -0.358,-0.792 -0.796,-0.792 h -0.796 c -0.44,0 -0.799,0.354 -0.799,0.792 v 0.798 c 0,0.44 0.359,0.798 0.799,0.798 h 0.796 C -0.358,1.596 0,1.238 0,0.798 Z"
             style="fill:#fe7b1d;fill-opacity:1;fill-rule:nonzero;stroke:none"
             id="path86" /></g><g
           id="g88"
           transform="translate(199.6914,22.0293)"><path
             d="m 0,0 c 0,-0.438 -0.355,-0.792 -0.797,-0.792 h -0.796 c -0.435,0 -0.794,0.354 -0.794,0.792 v 0.798 c 0,0.44 0.359,0.798 0.794,0.798 h 0.796 C -0.355,1.596 0,1.238 0,0.798 Z"
             style="fill:#fe7b1d;fill-opacity:1;fill-rule:nonzero;stroke:none"
             id="path90" /></g><g
           id="g92"
           transform="translate(172.9023,4.167)"><path
             d="m 0,0 c 0,-0.439 -0.357,-0.797 -0.797,-0.797 h -0.798 c -0.437,0 -0.792,0.358 -0.792,0.797 v 0.797 c 0,0.439 0.355,0.794 0.792,0.794 h 0.798 C -0.357,1.591 0,1.236 0,0.797 Z"
             style="fill:#fe7b1d;fill-opacity:1;fill-rule:nonzero;stroke:none"
             id="path94" /></g><g
           id="g96"
           transform="translate(175.8779,4.167)"><path
             d="m 0,0 c 0,-0.439 -0.358,-0.797 -0.794,-0.797 h -0.795 c -0.446,0 -0.8,0.358 -0.8,0.797 v 0.797 c 0,0.439 0.354,0.794 0.8,0.794 h 0.795 C -0.358,1.591 0,1.236 0,0.797 Z"
             style="fill:#fe7b1d;fill-opacity:1;fill-rule:nonzero;stroke:none"
             id="path98" /></g><g
           id="g100"
           transform="translate(172.9023,7.1416)"><path
             d="m 0,0 c 0,-0.438 -0.357,-0.799 -0.797,-0.799 h -0.798 c -0.437,0 -0.792,0.361 -0.792,0.799 v 0.797 c 0,0.444 0.355,0.798 0.792,0.798 h 0.798 C -0.357,1.595 0,1.241 0,0.797 Z"
             style="fill:#fe7b1d;fill-opacity:1;fill-rule:nonzero;stroke:none"
             id="path102" /></g><g
           id="g104"
           transform="translate(172.9023,10.1221)"><path
             d="m 0,0 c 0,-0.443 -0.357,-0.797 -0.797,-0.797 h -0.798 c -0.437,0 -0.792,0.354 -0.792,0.797 v 0.795 c 0,0.44 0.355,0.795 0.792,0.795 h 0.798 C -0.357,1.59 0,1.235 0,0.795 Z"
             style="fill:#fe7b1d;fill-opacity:1;fill-rule:nonzero;stroke:none"
             id="path106" /></g><g
           id="g108"
           transform="translate(172.9023,13.0957)"><path
             d="m 0,0 c 0,-0.438 -0.357,-0.797 -0.797,-0.797 h -0.798 c -0.437,0 -0.792,0.359 -0.792,0.797 v 0.798 c 0,0.436 0.355,0.798 0.792,0.798 h 0.798 C -0.357,1.596 0,1.234 0,0.798 Z"
             style="fill:#fe7b1d;fill-opacity:1;fill-rule:nonzero;stroke:none"
             id="path110" /></g><g
           id="g112"
           transform="translate(175.8779,13.0957)"><path
             d="m 0,0 c 0,-0.438 -0.358,-0.797 -0.794,-0.797 h -0.795 c -0.446,0 -0.8,0.359 -0.8,0.797 v 0.798 c 0,0.436 0.354,0.798 0.8,0.798 h 0.795 C -0.358,1.596 0,1.234 0,0.798 Z"
             style="fill:#fe7b1d;fill-opacity:1;fill-rule:nonzero;stroke:none"
             id="path114" /></g><g
           id="g116"
           transform="translate(172.9023,16.0771)"><path
             d="m 0,0 c 0,-0.445 -0.357,-0.799 -0.797,-0.799 h -0.798 c -0.437,0 -0.792,0.354 -0.792,0.799 v 0.791 c 0,0.441 0.355,0.797 0.792,0.797 h 0.798 C -0.357,1.588 0,1.232 0,0.791 Z"
             style="fill:#fe7b1d;fill-opacity:1;fill-rule:nonzero;stroke:none"
             id="path118" /></g><g
           id="g120"
           transform="translate(172.9023,19.0508)"><path
             d="m 0,0 c 0,-0.439 -0.357,-0.796 -0.797,-0.796 h -0.798 c -0.437,0 -0.792,0.357 -0.792,0.796 v 0.798 c 0,0.434 0.355,0.799 0.792,0.799 h 0.798 C -0.357,1.597 0,1.232 0,0.798 Z"
             style="fill:#fe7b1d;fill-opacity:1;fill-rule:nonzero;stroke:none"
             id="path122" /></g><g
           id="g124"
           transform="translate(172.9023,22.0254)"><path
             d="m 0,0 c 0,-0.438 -0.357,-0.791 -0.797,-0.791 h -0.798 c -0.437,0 -0.792,0.353 -0.792,0.791 v 0.799 c 0,0.44 0.355,0.796 0.792,0.796 h 0.798 C -0.357,1.595 0,1.239 0,0.799 Z"
             style="fill:#fe7b1d;fill-opacity:1;fill-rule:nonzero;stroke:none"
             id="path126" /></g><g
           id="g128"
           transform="translate(175.8779,22.0254)"><path
             d="m 0,0 c 0,-0.438 -0.358,-0.791 -0.794,-0.791 h -0.795 c -0.446,0 -0.8,0.353 -0.8,0.791 v 0.799 c 0,0.44 0.354,0.796 0.8,0.796 h 0.795 C -0.358,1.595 0,1.239 0,0.799 Z"
             style="fill:#fe7b1d;fill-opacity:1;fill-rule:nonzero;stroke:none"
             id="path130" /></g><g
           id="g132"
           transform="translate(175.8779,4.167)"><path
             d="m 0,0 c 0,-0.439 -0.358,-0.797 -0.794,-0.797 h -0.795 c -0.446,0 -0.8,0.358 -0.8,0.797 v 0.797 c 0,0.439 0.354,0.794 0.8,0.794 h 0.795 C -0.358,1.591 0,1.236 0,0.797 Z"
             style="fill:#fe7b1d;fill-opacity:1;fill-rule:nonzero;stroke:none"
             id="path134" /></g><g
           id="g136"
           transform="translate(178.8564,4.167)"><path
             d="m 0,0 c 0,-0.439 -0.356,-0.797 -0.794,-0.797 h -0.8 c -0.439,0 -0.796,0.358 -0.796,0.797 v 0.797 c 0,0.439 0.357,0.794 0.796,0.794 h 0.8 C -0.356,1.591 0,1.236 0,0.797 Z"
             style="fill:#fe7b1d;fill-opacity:1;fill-rule:nonzero;stroke:none"
             id="path138" /></g><g
           id="g140"
           transform="translate(181.8311,4.167)"><path
             d="m 0,0 c 0,-0.439 -0.354,-0.797 -0.795,-0.797 h -0.794 c -0.443,0 -0.795,0.358 -0.795,0.797 v 0.797 c 0,0.439 0.352,0.794 0.795,0.794 h 0.794 C -0.354,1.591 0,1.236 0,0.797 Z"
             style="fill:#fe7b1d;fill-opacity:1;fill-rule:nonzero;stroke:none"
             id="path142" /></g><g
           id="g144"
           transform="translate(184.8115,4.167)"><path
             d="m 0,0 c 0,-0.439 -0.359,-0.797 -0.796,-0.797 h -0.798 c -0.44,0 -0.799,0.358 -0.799,0.797 v 0.797 c 0,0.439 0.359,0.794 0.799,0.794 h 0.798 C -0.359,1.591 0,1.236 0,0.797 Z"
             style="fill:#fe7b1d;fill-opacity:1;fill-rule:nonzero;stroke:none"
             id="path146" /></g><g
           id="g148"
           transform="translate(175.8779,13.0957)"><path
             d="m 0,0 c 0,-0.438 -0.358,-0.797 -0.794,-0.797 h -0.795 c -0.446,0 -0.8,0.359 -0.8,0.797 v 0.798 c 0,0.436 0.354,0.798 0.8,0.798 h 0.795 C -0.358,1.596 0,1.234 0,0.798 Z"
             style="fill:#fe7b1d;fill-opacity:1;fill-rule:nonzero;stroke:none"
             id="path150" /></g><g
           id="g152"
           transform="translate(178.8564,13.0957)"><path
             d="m 0,0 c 0,-0.438 -0.356,-0.797 -0.794,-0.797 h -0.8 c -0.439,0 -0.796,0.359 -0.796,0.797 v 0.798 c 0,0.436 0.357,0.798 0.796,0.798 h 0.8 C -0.356,1.596 0,1.234 0,0.798 Z"
             style="fill:#fe7b1d;fill-opacity:1;fill-rule:nonzero;stroke:none"
             id="path154" /></g><g
           id="g156"
           transform="translate(181.8311,13.0957)"><path
             d="m 0,0 c 0,-0.438 -0.354,-0.797 -0.795,-0.797 h -0.794 c -0.443,0 -0.795,0.359 -0.795,0.797 v 0.798 c 0,0.436 0.352,0.798 0.795,0.798 h 0.794 C -0.354,1.596 0,1.234 0,0.798 Z"
             style="fill:#fe7b1d;fill-opacity:1;fill-rule:nonzero;stroke:none"
             id="path158" /></g><g
           id="g160"
           transform="translate(184.8115,13.0957)"><path
             d="m 0,0 c 0,-0.438 -0.359,-0.797 -0.796,-0.797 h -0.798 c -0.44,0 -0.799,0.359 -0.799,0.797 v 0.798 c 0,0.436 0.359,0.798 0.799,0.798 h 0.798 C -0.359,1.596 0,1.234 0,0.798 Z"
             style="fill:#fe7b1d;fill-opacity:1;fill-rule:nonzero;stroke:none"
             id="path162" /></g><g
           id="g164"
           transform="translate(175.8779,22.0254)"><path
             d="m 0,0 c 0,-0.438 -0.358,-0.791 -0.794,-0.791 h -0.795 c -0.446,0 -0.8,0.353 -0.8,0.791 v 0.799 c 0,0.44 0.354,0.796 0.8,0.796 h 0.795 C -0.358,1.595 0,1.239 0,0.799 Z"
             style="fill:#fe7b1d;fill-opacity:1;fill-rule:nonzero;stroke:none"
             id="path166" /></g><g
           id="g168"
           transform="translate(178.8564,22.0254)"><path
             d="m 0,0 c 0,-0.438 -0.356,-0.791 -0.794,-0.791 h -0.8 c -0.439,0 -0.796,0.353 -0.796,0.791 v 0.799 c 0,0.44 0.357,0.796 0.796,0.796 h 0.8 C -0.356,1.595 0,1.239 0,0.799 Z"
             style="fill:#fe7b1d;fill-opacity:1;fill-rule:nonzero;stroke:none"
             id="path170" /></g><g
           id="g172"
           transform="translate(181.8311,22.0254)"><path
             d="m 0,0 c 0,-0.438 -0.354,-0.791 -0.795,-0.791 h -0.794 c -0.443,0 -0.795,0.353 -0.795,0.791 v 0.799 c 0,0.44 0.352,0.796 0.795,0.796 h 0.794 C -0.354,1.595 0,1.239 0,0.799 Z"
             style="fill:#fe7b1d;fill-opacity:1;fill-rule:nonzero;stroke:none"
             id="path174" /></g><g
           id="g176"
           transform="translate(184.8115,22.0254)"><path
             d="m 0,0 c 0,-0.438 -0.359,-0.791 -0.796,-0.791 h -0.798 c -0.44,0 -0.799,0.353 -0.799,0.791 v 0.799 c 0,0.44 0.359,0.796 0.799,0.796 h 0.798 C -0.359,1.595 0,1.239 0,0.799 Z"
             style="fill:#fe7b1d;fill-opacity:1;fill-rule:nonzero;stroke:none"
             id="path178" /></g><g
           id="g180"
           transform="translate(155.041,4.167)"><path
             d="m 0,0 c 0,-0.439 -0.354,-0.797 -0.799,-0.797 h -0.793 c -0.44,0 -0.798,0.358 -0.798,0.797 v 0.797 c 0,0.439 0.358,0.794 0.798,0.794 h 0.793 C -0.354,1.591 0,1.236 0,0.797 Z"
             style="fill:#fe7b1d;fill-opacity:1;fill-rule:nonzero;stroke:none"
             id="path182" /></g><g
           id="g184"
           transform="translate(158.0166,4.167)"><path
             d="m 0,0 c 0,-0.439 -0.356,-0.797 -0.796,-0.797 h -0.797 c -0.436,0 -0.798,0.358 -0.798,0.797 v 0.797 c 0,0.439 0.362,0.794 0.798,0.794 h 0.797 C -0.356,1.591 0,1.236 0,0.797 Z"
             style="fill:#fe7b1d;fill-opacity:1;fill-rule:nonzero;stroke:none"
             id="path186" /></g><g
           id="g188"
           transform="translate(160.9932,4.167)"><path
             d="m 0,0 c 0,-0.439 -0.353,-0.797 -0.799,-0.797 h -0.792 c -0.441,0 -0.798,0.358 -0.798,0.797 v 0.797 c 0,0.439 0.357,0.794 0.798,0.794 h 0.792 C -0.353,1.591 0,1.236 0,0.797 Z"
             style="fill:#fe7b1d;fill-opacity:1;fill-rule:nonzero;stroke:none"
             id="path190" /></g><g
           id="g192"
           transform="translate(163.9717,4.167)"><path
             d="m 0,0 c 0,-0.439 -0.356,-0.797 -0.796,-0.797 h -0.798 c -0.438,0 -0.798,0.358 -0.798,0.797 v 0.797 c 0,0.439 0.36,0.794 0.798,0.794 h 0.798 C -0.356,1.591 0,1.236 0,0.797 Z"
             style="fill:#fe7b1d;fill-opacity:1;fill-rule:nonzero;stroke:none"
             id="path194" /></g><g
           id="g196"
           transform="translate(155.041,7.1416)"><path
             d="m 0,0 c 0,-0.438 -0.354,-0.799 -0.799,-0.799 h -0.793 c -0.44,0 -0.798,0.361 -0.798,0.799 v 0.797 c 0,0.444 0.358,0.798 0.798,0.798 h 0.793 C -0.354,1.595 0,1.241 0,0.797 Z"
             style="fill:#fe7b1d;fill-opacity:1;fill-rule:nonzero;stroke:none"
             id="path198" /></g><g
           id="g200"
           transform="translate(166.9502,7.1416)"><path
             d="m 0,0 c 0,-0.438 -0.357,-0.799 -0.8,-0.799 h -0.796 c -0.438,0 -0.794,0.361 -0.794,0.799 v 0.797 c 0,0.444 0.356,0.798 0.794,0.798 H -0.8 C -0.357,1.595 0,1.241 0,0.797 Z"
             style="fill:#fe7b1d;fill-opacity:1;fill-rule:nonzero;stroke:none"
             id="path202" /></g><g
           id="g204"
           transform="translate(155.041,10.1221)"><path
             d="m 0,0 c 0,-0.443 -0.354,-0.797 -0.799,-0.797 h -0.793 c -0.44,0 -0.798,0.354 -0.798,0.797 v 0.795 c 0,0.44 0.358,0.795 0.798,0.795 h 0.793 C -0.354,1.59 0,1.235 0,0.795 Z"
             style="fill:#fe7b1d;fill-opacity:1;fill-rule:nonzero;stroke:none"
             id="path206" /></g><g
           id="g208"
           transform="translate(166.9502,10.1221)"><path
             d="m 0,0 c 0,-0.443 -0.357,-0.797 -0.8,-0.797 h -0.796 c -0.438,0 -0.794,0.354 -0.794,0.797 v 0.795 c 0,0.44 0.356,0.795 0.794,0.795 H -0.8 C -0.357,1.59 0,1.235 0,0.795 Z"
             style="fill:#fe7b1d;fill-opacity:1;fill-rule:nonzero;stroke:none"
             id="path210" /></g><g
           id="g212"
           transform="translate(155.041,13.0957)"><path
             d="m 0,0 c 0,-0.438 -0.354,-0.797 -0.799,-0.797 h -0.793 c -0.44,0 -0.798,0.359 -0.798,0.797 v 0.798 c 0,0.436 0.358,0.798 0.798,0.798 h 0.793 C -0.354,1.596 0,1.234 0,0.798 Z"
             style="fill:#fe7b1d;fill-opacity:1;fill-rule:nonzero;stroke:none"
             id="path214" /></g><g
           id="g216"
           transform="translate(166.9502,13.0957)"><path
             d="m 0,0 c 0,-0.438 -0.357,-0.797 -0.8,-0.797 h -0.796 c -0.438,0 -0.794,0.359 -0.794,0.797 v 0.798 c 0,0.436 0.356,0.798 0.794,0.798 H -0.8 C -0.357,1.596 0,1.234 0,0.798 Z"
             style="fill:#fe7b1d;fill-opacity:1;fill-rule:nonzero;stroke:none"
             id="path218" /></g><g
           id="g220"
           transform="translate(155.041,16.0771)"><path
             d="m 0,0 c 0,-0.445 -0.354,-0.799 -0.799,-0.799 h -0.793 c -0.44,0 -0.798,0.354 -0.798,0.799 v 0.791 c 0,0.441 0.358,0.797 0.798,0.797 h 0.793 C -0.354,1.588 0,1.232 0,0.791 Z"
             style="fill:#fe7b1d;fill-opacity:1;fill-rule:nonzero;stroke:none"
             id="path222" /></g><g
           id="g224"
           transform="translate(166.9502,16.0771)"><path
             d="m 0,0 c 0,-0.445 -0.357,-0.799 -0.8,-0.799 h -0.796 c -0.438,0 -0.794,0.354 -0.794,0.799 v 0.791 c 0,0.441 0.356,0.797 0.794,0.797 H -0.8 C -0.357,1.588 0,1.232 0,0.791 Z"
             style="fill:#fe7b1d;fill-opacity:1;fill-rule:nonzero;stroke:none"
             id="path226" /></g><g
           id="g228"
           transform="translate(155.041,19.0508)"><path
             d="m 0,0 c 0,-0.439 -0.354,-0.796 -0.799,-0.796 h -0.793 c -0.44,0 -0.798,0.357 -0.798,0.796 v 0.798 c 0,0.434 0.358,0.799 0.798,0.799 h 0.793 C -0.354,1.597 0,1.232 0,0.798 Z"
             style="fill:#fe7b1d;fill-opacity:1;fill-rule:nonzero;stroke:none"
             id="path230" /></g><g
           id="g232"
           transform="translate(166.9502,19.0508)"><path
             d="m 0,0 c 0,-0.439 -0.357,-0.796 -0.8,-0.796 h -0.796 c -0.438,0 -0.794,0.357 -0.794,0.796 v 0.798 c 0,0.434 0.356,0.799 0.794,0.799 H -0.8 C -0.357,1.597 0,1.232 0,0.798 Z"
             style="fill:#fe7b1d;fill-opacity:1;fill-rule:nonzero;stroke:none"
             id="path234" /></g><g
           id="g236"
           transform="translate(155.041,22.0254)"><path
             d="m 0,0 c 0,-0.438 -0.354,-0.791 -0.799,-0.791 h -0.793 c -0.44,0 -0.798,0.353 -0.798,0.791 v 0.799 c 0,0.44 0.358,0.796 0.798,0.796 h 0.793 C -0.354,1.595 0,1.239 0,0.799 Z"
             style="fill:#fe7b1d;fill-opacity:1;fill-rule:nonzero;stroke:none"
             id="path238" /></g><g
           id="g240"
           transform="translate(158.0166,22.0254)"><path
             d="m 0,0 c 0,-0.438 -0.356,-0.791 -0.796,-0.791 h -0.797 c -0.436,0 -0.798,0.353 -0.798,0.791 v 0.799 c 0,0.44 0.362,0.796 0.798,0.796 h 0.797 C -0.356,1.595 0,1.239 0,0.799 Z"
             style="fill:#fe7b1d;fill-opacity:1;fill-rule:nonzero;stroke:none"
             id="path242" /></g><g
           id="g244"
           transform="translate(160.9932,22.0254)"><path
             d="m 0,0 c 0,-0.438 -0.353,-0.791 -0.799,-0.791 h -0.792 c -0.441,0 -0.798,0.353 -0.798,0.791 v 0.799 c 0,0.44 0.357,0.796 0.798,0.796 h 0.792 C -0.353,1.595 0,1.239 0,0.799 Z"
             style="fill:#fe7b1d;fill-opacity:1;fill-rule:nonzero;stroke:none"
             id="path246" /></g><g
           id="g248"
           transform="translate(163.9717,22.0254)"><path
             d="m 0,0 c 0,-0.438 -0.356,-0.791 -0.796,-0.791 h -0.798 c -0.438,0 -0.798,0.353 -0.798,0.791 v 0.799 c 0,0.44 0.36,0.796 0.798,0.796 h 0.798 C -0.356,1.595 0,1.239 0,0.799 Z"
             style="fill:#fe7b1d;fill-opacity:1;fill-rule:nonzero;stroke:none"
             id="path250" /></g><g
           id="g252"
           transform="translate(137.1787,4.167)"><path
             d="m 0,0 c 0,-0.439 -0.358,-0.797 -0.792,-0.797 h -0.799 c -0.44,0 -0.798,0.358 -0.798,0.797 v 0.797 c 0,0.439 0.358,0.794 0.798,0.794 h 0.799 C -0.358,1.591 0,1.236 0,0.797 Z"
             style="fill:#fe7b1d;fill-opacity:1;fill-rule:nonzero;stroke:none"
             id="path254" /></g><g
           id="g256"
           transform="translate(149.085,4.167)"><path
             d="m 0,0 c 0,-0.439 -0.354,-0.797 -0.794,-0.797 h -0.797 c -0.441,0 -0.797,0.358 -0.797,0.797 v 0.797 c 0,0.439 0.356,0.794 0.797,0.794 h 0.797 C -0.354,1.591 0,1.236 0,0.797 Z"
             style="fill:#fe7b1d;fill-opacity:1;fill-rule:nonzero;stroke:none"
             id="path258" /></g><g
           id="g260"
           transform="translate(137.1787,7.1416)"><path
             d="m 0,0 c 0,-0.438 -0.358,-0.799 -0.792,-0.799 h -0.799 c -0.44,0 -0.798,0.361 -0.798,0.799 v 0.797 c 0,0.444 0.358,0.798 0.798,0.798 h 0.799 C -0.358,1.595 0,1.241 0,0.797 Z"
             style="fill:#fe7b1d;fill-opacity:1;fill-rule:nonzero;stroke:none"
             id="path262" /></g><g
           id="g264"
           transform="translate(149.085,7.1416)"><path
             d="m 0,0 c 0,-0.438 -0.354,-0.799 -0.794,-0.799 h -0.797 c -0.441,0 -0.797,0.361 -0.797,0.799 v 0.797 c 0,0.444 0.356,0.798 0.797,0.798 h 0.797 C -0.354,1.595 0,1.241 0,0.797 Z"
             style="fill:#fe7b1d;fill-opacity:1;fill-rule:nonzero;stroke:none"
             id="path266" /></g><g
           id="g268"
           transform="translate(137.1787,10.1221)"><path
             d="m 0,0 c 0,-0.443 -0.358,-0.797 -0.792,-0.797 h -0.799 c -0.44,0 -0.798,0.354 -0.798,0.797 v 0.795 c 0,0.44 0.358,0.795 0.798,0.795 h 0.799 C -0.358,1.59 0,1.235 0,0.795 Z"
             style="fill:#fe7b1d;fill-opacity:1;fill-rule:nonzero;stroke:none"
             id="path270" /></g><g
           id="g272"
           transform="translate(140.1543,10.1221)"><path
             d="m 0,0 c 0,-0.443 -0.354,-0.797 -0.797,-0.797 h -0.794 c -0.438,0 -0.795,0.354 -0.795,0.797 v 0.795 c 0,0.44 0.357,0.795 0.795,0.795 h 0.794 C -0.354,1.59 0,1.235 0,0.795 Z"
             style="fill:#fe7b1d;fill-opacity:1;fill-rule:nonzero;stroke:none"
             id="path274" /></g><g
           id="g276"
           transform="translate(143.1309,10.1221)"><path
             d="m 0,0 c 0,-0.443 -0.355,-0.797 -0.794,-0.797 h -0.798 c -0.441,0 -0.795,0.354 -0.795,0.797 v 0.795 c 0,0.44 0.354,0.795 0.795,0.795 h 0.798 C -0.355,1.59 0,1.235 0,0.795 Z"
             style="fill:#fe7b1d;fill-opacity:1;fill-rule:nonzero;stroke:none"
             id="path278" /></g><g
           id="g280"
           transform="translate(146.1094,10.1221)"><path
             d="m 0,0 c 0,-0.443 -0.354,-0.797 -0.798,-0.797 h -0.796 c -0.437,0 -0.794,0.354 -0.794,0.797 v 0.795 c 0,0.44 0.357,0.795 0.794,0.795 h 0.796 C -0.354,1.59 0,1.235 0,0.795 Z"
             style="fill:#fe7b1d;fill-opacity:1;fill-rule:nonzero;stroke:none"
             id="path282" /></g><g
           id="g284"
           transform="translate(149.085,10.1221)"><path
             d="m 0,0 c 0,-0.443 -0.354,-0.797 -0.794,-0.797 h -0.797 c -0.441,0 -0.797,0.354 -0.797,0.797 v 0.795 c 0,0.44 0.356,0.795 0.797,0.795 h 0.797 C -0.354,1.59 0,1.235 0,0.795 Z"
             style="fill:#fe7b1d;fill-opacity:1;fill-rule:nonzero;stroke:none"
             id="path286" /></g><g
           id="g288"
           transform="translate(137.1787,13.0957)"><path
             d="m 0,0 c 0,-0.438 -0.358,-0.797 -0.792,-0.797 h -0.799 c -0.44,0 -0.798,0.359 -0.798,0.797 v 0.798 c 0,0.436 0.358,0.798 0.798,0.798 h 0.799 C -0.358,1.596 0,1.234 0,0.798 Z"
             style="fill:#fe7b1d;fill-opacity:1;fill-rule:nonzero;stroke:none"
             id="path290" /></g><g
           id="g292"
           transform="translate(149.085,13.0957)"><path
             d="m 0,0 c 0,-0.438 -0.354,-0.797 -0.794,-0.797 h -0.797 c -0.441,0 -0.797,0.359 -0.797,0.797 v 0.798 c 0,0.436 0.356,0.798 0.797,0.798 h 0.797 C -0.354,1.596 0,1.234 0,0.798 Z"
             style="fill:#fe7b1d;fill-opacity:1;fill-rule:nonzero;stroke:none"
             id="path294" /></g><g
           id="g296"
           transform="translate(137.1787,16.0771)"><path
             d="m 0,0 c 0,-0.445 -0.358,-0.799 -0.792,-0.799 h -0.799 c -0.44,0 -0.798,0.354 -0.798,0.799 v 0.791 c 0,0.441 0.358,0.797 0.798,0.797 h 0.799 C -0.358,1.588 0,1.232 0,0.791 Z"
             style="fill:#fe7b1d;fill-opacity:1;fill-rule:nonzero;stroke:none"
             id="path298" /></g><g
           id="g300"
           transform="translate(149.085,16.0771)"><path
             d="m 0,0 c 0,-0.445 -0.354,-0.799 -0.794,-0.799 h -0.797 c -0.441,0 -0.797,0.354 -0.797,0.799 v 0.791 c 0,0.441 0.356,0.797 0.797,0.797 h 0.797 C -0.354,1.588 0,1.232 0,0.791 Z"
             style="fill:#fe7b1d;fill-opacity:1;fill-rule:nonzero;stroke:none"
             id="path302" /></g><g
           id="g304"
           transform="translate(140.1543,19.0508)"><path
             d="m 0,0 c 0,-0.439 -0.354,-0.796 -0.797,-0.796 h -0.794 c -0.438,0 -0.795,0.357 -0.795,0.796 v 0.798 c 0,0.434 0.357,0.799 0.795,0.799 h 0.794 C -0.354,1.597 0,1.232 0,0.798 Z"
             style="fill:#fe7b1d;fill-opacity:1;fill-rule:nonzero;stroke:none"
             id="path306" /></g><g
           id="g308"
           transform="translate(146.1094,19.0508)"><path
             d="m 0,0 c 0,-0.439 -0.354,-0.796 -0.798,-0.796 h -0.796 c -0.437,0 -0.794,0.357 -0.794,0.796 v 0.798 c 0,0.434 0.357,0.799 0.794,0.799 h 0.796 C -0.354,1.597 0,1.232 0,0.798 Z"
             style="fill:#fe7b1d;fill-opacity:1;fill-rule:nonzero;stroke:none"
             id="path310" /></g><g
           id="g312"
           transform="translate(143.1309,22.0254)"><path
             d="m 0,0 c 0,-0.438 -0.355,-0.791 -0.794,-0.791 h -0.798 c -0.441,0 -0.795,0.353 -0.795,0.791 v 0.799 c 0,0.44 0.354,0.796 0.795,0.796 h 0.798 C -0.355,1.595 0,1.239 0,0.799 Z"
             style="fill:#fe7b1d;fill-opacity:1;fill-rule:nonzero;stroke:none"
             id="path314" /></g><g
           id="g316"
           transform="translate(119.3145,4.1689)"><path
             d="m 0,0 c 0,-0.439 -0.355,-0.796 -0.797,-0.796 h -0.798 c -0.437,0 -0.793,0.357 -0.793,0.796 v 0.8 c 0,0.438 0.356,0.792 0.793,0.792 h 0.798 C -0.355,1.592 0,1.238 0,0.8 Z"
             style="fill:#fe7b1d;fill-opacity:1;fill-rule:nonzero;stroke:none"
             id="path318" /></g><g
           id="g320"
           transform="translate(131.2275,4.167)"><path
             d="m 0,0 c 0,-0.439 -0.36,-0.797 -0.796,-0.797 h -0.798 c -0.44,0 -0.798,0.358 -0.798,0.797 v 0.797 c 0,0.439 0.358,0.794 0.798,0.794 h 0.798 C -0.36,1.591 0,1.236 0,0.797 Z"
             style="fill:#fe7b1d;fill-opacity:1;fill-rule:nonzero;stroke:none"
             id="path322" /></g><g
           id="g324"
           transform="translate(119.3145,7.1465)"><path
             d="m 0,0 c 0,-0.439 -0.355,-0.798 -0.797,-0.798 h -0.798 c -0.437,0 -0.793,0.359 -0.793,0.798 v 0.797 c 0,0.442 0.356,0.797 0.793,0.797 h 0.798 C -0.355,1.594 0,1.239 0,0.797 Z"
             style="fill:#fe7b1d;fill-opacity:1;fill-rule:nonzero;stroke:none"
             id="path326" /></g><g
           id="g328"
           transform="translate(131.2275,7.1416)"><path
             d="m 0,0 c 0,-0.438 -0.36,-0.799 -0.796,-0.799 h -0.798 c -0.44,0 -0.798,0.361 -0.798,0.799 v 0.797 c 0,0.444 0.358,0.798 0.798,0.798 h 0.798 C -0.36,1.595 0,1.241 0,0.797 Z"
             style="fill:#fe7b1d;fill-opacity:1;fill-rule:nonzero;stroke:none"
             id="path330" /></g><g
           id="g332"
           transform="translate(119.3145,10.126)"><path
             d="m 0,0 c 0,-0.445 -0.355,-0.798 -0.797,-0.798 h -0.798 c -0.437,0 -0.793,0.353 -0.793,0.798 v 0.791 c 0,0.442 0.356,0.797 0.793,0.797 h 0.798 C -0.355,1.588 0,1.233 0,0.791 Z"
             style="fill:#fe7b1d;fill-opacity:1;fill-rule:nonzero;stroke:none"
             id="path334" /></g><g
           id="g336"
           transform="translate(131.2275,10.1221)"><path
             d="m 0,0 c 0,-0.443 -0.36,-0.797 -0.796,-0.797 h -0.798 c -0.44,0 -0.798,0.354 -0.798,0.797 v 0.795 c 0,0.44 0.358,0.795 0.798,0.795 h 0.798 C -0.36,1.59 0,1.235 0,0.795 Z"
             style="fill:#fe7b1d;fill-opacity:1;fill-rule:nonzero;stroke:none"
             id="path338" /></g><g
           id="g340"
           transform="translate(119.3145,13.1006)"><path
             d="m 0,0 c 0,-0.438 -0.355,-0.798 -0.797,-0.798 h -0.798 c -0.437,0 -0.793,0.36 -0.793,0.798 v 0.798 c 0,0.434 0.356,0.797 0.793,0.797 h 0.798 C -0.355,1.595 0,1.232 0,0.798 Z"
             style="fill:#fe7b1d;fill-opacity:1;fill-rule:nonzero;stroke:none"
             id="path342" /></g><g
           id="g344"
           transform="translate(122.291,13.1006)"><path
             d="m 0,0 c 0,-0.438 -0.358,-0.798 -0.794,-0.798 h -0.797 c -0.444,0 -0.799,0.36 -0.799,0.798 v 0.798 c 0,0.434 0.355,0.797 0.799,0.797 h 0.797 C -0.358,1.595 0,1.232 0,0.798 Z"
             style="fill:#fe7b1d;fill-opacity:1;fill-rule:nonzero;stroke:none"
             id="path346" /></g><g
           id="g348"
           transform="translate(125.2725,13.0957)"><path
             d="m 0,0 c 0,-0.438 -0.357,-0.797 -0.797,-0.797 h -0.797 c -0.439,0 -0.798,0.359 -0.798,0.797 v 0.798 c 0,0.436 0.359,0.798 0.798,0.798 h 0.797 C -0.357,1.596 0,1.234 0,0.798 Z"
             style="fill:#fe7b1d;fill-opacity:1;fill-rule:nonzero;stroke:none"
             id="path350" /></g><g
           id="g352"
           transform="translate(128.248,13.0957)"><path
             d="m 0,0 c 0,-0.438 -0.357,-0.797 -0.796,-0.797 h -0.795 c -0.442,0 -0.796,0.359 -0.796,0.797 v 0.798 c 0,0.436 0.354,0.798 0.796,0.798 h 0.795 C -0.357,1.596 0,1.234 0,0.798 Z"
             style="fill:#fe7b1d;fill-opacity:1;fill-rule:nonzero;stroke:none"
             id="path354" /></g><g
           id="g356"
           transform="translate(119.3145,16.0811)"><path
             d="m 0,0 c 0,-0.446 -0.355,-0.798 -0.797,-0.798 h -0.798 c -0.437,0 -0.793,0.352 -0.793,0.798 v 0.792 c 0,0.438 0.356,0.797 0.793,0.797 h 0.798 C -0.355,1.589 0,1.23 0,0.792 Z"
             style="fill:#fe7b1d;fill-opacity:1;fill-rule:nonzero;stroke:none"
             id="path358" /></g><g
           id="g360"
           transform="translate(131.2236,16.0811)"><path
             d="m 0,0 c 0,-0.446 -0.36,-0.798 -0.798,-0.798 h -0.797 c -0.439,0 -0.797,0.352 -0.797,0.798 v 0.792 c 0,0.438 0.358,0.797 0.797,0.797 h 0.797 C -0.36,1.589 0,1.23 0,0.792 Z"
             style="fill:#fe7b1d;fill-opacity:1;fill-rule:nonzero;stroke:none"
             id="path362" /></g><g
           id="g364"
           transform="translate(119.3145,19.0537)"><path
             d="m 0,0 c 0,-0.442 -0.355,-0.795 -0.797,-0.795 h -0.798 c -0.437,0 -0.793,0.353 -0.793,0.795 v 0.799 c 0,0.436 0.356,0.798 0.793,0.798 h 0.798 C -0.355,1.597 0,1.235 0,0.799 Z"
             style="fill:#fe7b1d;fill-opacity:1;fill-rule:nonzero;stroke:none"
             id="path366" /></g><g
           id="g368"
           transform="translate(131.2236,19.0537)"><path
             d="m 0,0 c 0,-0.442 -0.36,-0.795 -0.798,-0.795 h -0.797 c -0.439,0 -0.797,0.353 -0.797,0.795 v 0.799 c 0,0.436 0.358,0.798 0.797,0.798 h 0.797 C -0.36,1.597 0,1.235 0,0.799 Z"
             style="fill:#fe7b1d;fill-opacity:1;fill-rule:nonzero;stroke:none"
             id="path370" /></g><g
           id="g372"
           transform="translate(119.3145,22.0293)"><path
             d="m 0,0 c 0,-0.438 -0.355,-0.792 -0.797,-0.792 h -0.798 c -0.437,0 -0.793,0.354 -0.793,0.792 v 0.798 c 0,0.44 0.356,0.798 0.793,0.798 h 0.798 C -0.355,1.596 0,1.238 0,0.798 Z"
             style="fill:#fe7b1d;fill-opacity:1;fill-rule:nonzero;stroke:none"
             id="path374" /></g><g
           id="g376"
           transform="translate(122.291,22.0293)"><path
             d="m 0,0 c 0,-0.438 -0.358,-0.792 -0.794,-0.792 h -0.797 c -0.444,0 -0.799,0.354 -0.799,0.792 v 0.798 c 0,0.44 0.355,0.798 0.799,0.798 h 0.797 C -0.358,1.596 0,1.238 0,0.798 Z"
             style="fill:#fe7b1d;fill-opacity:1;fill-rule:nonzero;stroke:none"
             id="path378" /></g><g
           id="g380"
           transform="translate(125.2686,22.0293)"><path
             d="m 0,0 c 0,-0.438 -0.357,-0.792 -0.796,-0.792 h -0.797 c -0.44,0 -0.799,0.354 -0.799,0.792 v 0.798 c 0,0.44 0.359,0.798 0.799,0.798 h 0.797 C -0.357,1.596 0,1.238 0,0.798 Z"
             style="fill:#fe7b1d;fill-opacity:1;fill-rule:nonzero;stroke:none"
             id="path382" /></g><g
           id="g384"
           transform="translate(128.2422,22.0293)"><path
             d="m 0,0 c 0,-0.438 -0.355,-0.792 -0.792,-0.792 h -0.796 c -0.443,0 -0.795,0.354 -0.795,0.792 v 0.798 c 0,0.44 0.352,0.798 0.795,0.798 h 0.796 C -0.355,1.596 0,1.238 0,0.798 Z"
             style="fill:#fe7b1d;fill-opacity:1;fill-rule:nonzero;stroke:none"
             id="path386" /></g><g
           id="g388"
           transform="translate(107.4092,4.167)"><path
             d="m 0,0 c 0,-0.439 -0.354,-0.797 -0.799,-0.797 h -0.793 c -0.438,0 -0.795,0.358 -0.795,0.797 v 0.797 c 0,0.439 0.357,0.794 0.795,0.794 h 0.793 C -0.354,1.591 0,1.236 0,0.797 Z"
             style="fill:#fe7b1d;fill-opacity:1;fill-rule:nonzero;stroke:none"
             id="path390" /></g><g
           id="g392"
           transform="translate(107.4092,7.1416)"><path
             d="m 0,0 c 0,-0.438 -0.354,-0.799 -0.799,-0.799 h -0.793 c -0.438,0 -0.795,0.361 -0.795,0.799 v 0.797 c 0,0.444 0.357,0.798 0.795,0.798 h 0.793 C -0.354,1.595 0,1.241 0,0.797 Z"
             style="fill:#fe7b1d;fill-opacity:1;fill-rule:nonzero;stroke:none"
             id="path394" /></g><g
           id="g396"
           transform="translate(107.4092,10.1221)"><path
             d="m 0,0 c 0,-0.443 -0.354,-0.797 -0.799,-0.797 h -0.793 c -0.438,0 -0.795,0.354 -0.795,0.797 v 0.795 c 0,0.44 0.357,0.795 0.795,0.795 h 0.793 C -0.354,1.59 0,1.235 0,0.795 Z"
             style="fill:#fe7b1d;fill-opacity:1;fill-rule:nonzero;stroke:none"
             id="path398" /></g><g
           id="g400"
           transform="translate(107.4092,13.0957)"><path
             d="m 0,0 c 0,-0.438 -0.354,-0.797 -0.799,-0.797 h -0.793 c -0.438,0 -0.795,0.359 -0.795,0.797 v 0.798 c 0,0.436 0.357,0.798 0.795,0.798 h 0.793 C -0.354,1.596 0,1.234 0,0.798 Z"
             style="fill:#fe7b1d;fill-opacity:1;fill-rule:nonzero;stroke:none"
             id="path402" /></g><g
           id="g404"
           transform="translate(107.4092,16.0771)"><path
             d="m 0,0 c 0,-0.445 -0.354,-0.799 -0.799,-0.799 h -0.793 c -0.438,0 -0.795,0.354 -0.795,0.799 v 0.791 c 0,0.441 0.357,0.797 0.795,0.797 h 0.793 C -0.354,1.588 0,1.232 0,0.791 Z"
             style="fill:#fe7b1d;fill-opacity:1;fill-rule:nonzero;stroke:none"
             id="path406" /></g><g
           id="g408"
           transform="translate(107.4092,19.0508)"><path
             d="m 0,0 c 0,-0.439 -0.354,-0.796 -0.799,-0.796 h -0.793 c -0.438,0 -0.795,0.357 -0.795,0.796 v 0.798 c 0,0.434 0.357,0.799 0.795,0.799 h 0.793 C -0.354,1.597 0,1.232 0,0.798 Z"
             style="fill:#fe7b1d;fill-opacity:1;fill-rule:nonzero;stroke:none"
             id="path410" /></g><g
           id="g412"
           transform="translate(101.4521,22.0254)"><path
             d="M 0,0 C 0,-0.438 -0.353,-0.791 -0.792,-0.791 H -1.59 c -0.437,0 -0.795,0.353 -0.795,0.791 v 0.799 c 0,0.44 0.358,0.796 0.795,0.796 h 0.798 C -0.353,1.595 0,1.239 0,0.799 Z"
             style="fill:#fe7b1d;fill-opacity:1;fill-rule:nonzero;stroke:none"
             id="path414" /></g><g
           id="g416"
           transform="translate(104.4346,22.0254)"><path
             d="m 0,0 c 0,-0.438 -0.36,-0.791 -0.799,-0.791 h -0.796 c -0.436,0 -0.801,0.353 -0.801,0.791 v 0.799 c 0,0.44 0.365,0.796 0.801,0.796 h 0.796 C -0.36,1.595 0,1.239 0,0.799 Z"
             style="fill:#fe7b1d;fill-opacity:1;fill-rule:nonzero;stroke:none"
             id="path418" /></g><g
           id="g420"
           transform="translate(107.4092,22.0254)"><path
             d="m 0,0 c 0,-0.438 -0.354,-0.791 -0.799,-0.791 h -0.793 c -0.438,0 -0.795,0.353 -0.795,0.791 v 0.799 c 0,0.44 0.357,0.796 0.795,0.796 h 0.793 C -0.354,1.595 0,1.239 0,0.799 Z"
             style="fill:#fe7b1d;fill-opacity:1;fill-rule:nonzero;stroke:none"
             id="path422" /></g><g
           id="g424"
           transform="translate(110.3887,22.0254)"><path
             d="m 0,0 c 0,-0.438 -0.358,-0.791 -0.799,-0.791 h -0.797 c -0.436,0 -0.797,0.353 -0.797,0.791 v 0.799 c 0,0.44 0.361,0.796 0.797,0.796 h 0.797 C -0.358,1.595 0,1.239 0,0.799 Z"
             style="fill:#fe7b1d;fill-opacity:1;fill-rule:nonzero;stroke:none"
             id="path426" /></g><g
           id="g428"
           transform="translate(113.3623,22.0254)"><path
             d="m 0,0 c 0,-0.438 -0.354,-0.791 -0.796,-0.791 h -0.797 c -0.44,0 -0.794,0.353 -0.794,0.791 v 0.799 c 0,0.44 0.354,0.796 0.794,0.796 h 0.797 C -0.354,1.595 0,1.239 0,0.799 Z"
             style="fill:#fe7b1d;fill-opacity:1;fill-rule:nonzero;stroke:none"
             id="path430" /></g><g
           id="g432"
           transform="translate(95.499,4.168)"><path
             d="M 0,0 C 0,-0.439 -0.353,-0.797 -0.793,-0.797 H -1.59 c -0.44,0 -0.798,0.358 -0.798,0.797 v 0.799 c 0,0.438 0.358,0.792 0.798,0.792 h 0.797 C -0.353,1.591 0,1.237 0,0.799 Z"
             style="fill:#bfbfbf;fill-opacity:1;fill-rule:nonzero;stroke:none"
             id="path434" /></g><g
           id="g436"
           transform="translate(89.5498,4.168)"><path
             d="m 0,0 c 0,-0.439 -0.359,-0.797 -0.798,-0.797 h -0.796 c -0.441,0 -0.797,0.358 -0.797,0.797 v 0.799 c 0,0.438 0.356,0.792 0.797,0.792 h 0.796 C -0.359,1.591 0,1.237 0,0.799 Z"
             style="fill:#bfbfbf;fill-opacity:1;fill-rule:nonzero;stroke:none"
             id="path438" /></g><g
           id="g440"
           transform="translate(92.5225,4.168)"><path
             d="m 0,0 c 0,-0.439 -0.352,-0.797 -0.796,-0.797 h -0.797 c -0.436,0 -0.793,0.358 -0.793,0.797 v 0.799 c 0,0.438 0.357,0.792 0.793,0.792 h 0.797 C -0.352,1.591 0,1.237 0,0.799 Z"
             style="fill:#bfbfbf;fill-opacity:1;fill-rule:nonzero;stroke:none"
             id="path442" /></g><g
           id="g444"
           transform="translate(92.5225,7.1436)"><path
             d="m 0,0 c 0,-0.438 -0.352,-0.797 -0.796,-0.797 h -0.797 c -0.436,0 -0.793,0.359 -0.793,0.797 v 0.797 c 0,0.442 0.357,0.798 0.793,0.798 h 0.797 C -0.352,1.595 0,1.239 0,0.797 Z"
             style="fill:#bfbfbf;fill-opacity:1;fill-rule:nonzero;stroke:none"
             id="path446" /></g><g
           id="g448"
           transform="translate(92.5225,10.124)"><path
             d="m 0,0 c 0,-0.444 -0.352,-0.797 -0.796,-0.797 h -0.797 c -0.436,0 -0.793,0.353 -0.793,0.797 v 0.793 c 0,0.441 0.357,0.797 0.793,0.797 h 0.797 C -0.352,1.59 0,1.234 0,0.793 Z"
             style="fill:#bfbfbf;fill-opacity:1;fill-rule:nonzero;stroke:none"
             id="path450" /></g><g
           id="g452"
           transform="translate(92.5225,13.0977)"><path
             d="m 0,0 c 0,-0.438 -0.352,-0.797 -0.796,-0.797 h -0.797 c -0.436,0 -0.793,0.359 -0.793,0.797 v 0.798 c 0,0.435 0.357,0.798 0.793,0.798 h 0.797 C -0.352,1.596 0,1.233 0,0.798 Z"
             style="fill:#bfbfbf;fill-opacity:1;fill-rule:nonzero;stroke:none"
             id="path454" /></g><g
           id="g456"
           transform="translate(92.5225,16.0791)"><path
             d="m 0,0 c 0,-0.444 -0.352,-0.797 -0.796,-0.797 h -0.797 c -0.436,0 -0.793,0.353 -0.793,0.797 v 0.792 c 0,0.44 0.357,0.796 0.793,0.796 h 0.797 C -0.352,1.588 0,1.232 0,0.792 Z"
             style="fill:#bfbfbf;fill-opacity:1;fill-rule:nonzero;stroke:none"
             id="path458" /></g><g
           id="g460"
           transform="translate(92.5225,19.0537)"><path
             d="m 0,0 c 0,-0.442 -0.352,-0.797 -0.796,-0.797 h -0.797 c -0.436,0 -0.793,0.355 -0.793,0.797 v 0.797 c 0,0.435 0.357,0.798 0.793,0.798 h 0.797 C -0.352,1.595 0,1.232 0,0.797 Z"
             style="fill:#bfbfbf;fill-opacity:1;fill-rule:nonzero;stroke:none"
             id="path462" /></g><g
           id="g464"
           transform="translate(95.499,22.0273)"><path
             d="M 0,0 C 0,-0.438 -0.353,-0.791 -0.793,-0.791 H -1.59 c -0.44,0 -0.798,0.353 -0.798,0.791 v 0.799 c 0,0.439 0.358,0.797 0.798,0.797 h 0.797 C -0.353,1.596 0,1.238 0,0.799 Z"
             style="fill:#bfbfbf;fill-opacity:1;fill-rule:nonzero;stroke:none"
             id="path466" /></g><g
           id="g468"
           transform="translate(89.5498,22.0273)"><path
             d="m 0,0 c 0,-0.438 -0.359,-0.791 -0.798,-0.791 h -0.796 c -0.441,0 -0.797,0.353 -0.797,0.791 v 0.799 c 0,0.439 0.356,0.797 0.797,0.797 h 0.796 C -0.359,1.596 0,1.238 0,0.799 Z"
             style="fill:#bfbfbf;fill-opacity:1;fill-rule:nonzero;stroke:none"
             id="path470" /></g><g
           id="g472"
           transform="translate(92.5225,22.0273)"><path
             d="m 0,0 c 0,-0.438 -0.352,-0.791 -0.796,-0.791 h -0.797 c -0.436,0 -0.793,0.353 -0.793,0.791 v 0.799 c 0,0.439 0.357,0.797 0.793,0.797 h 0.797 C -0.352,1.596 0,1.238 0,0.799 Z"
             style="fill:#bfbfbf;fill-opacity:1;fill-rule:nonzero;stroke:none"
             id="path474" /></g><g
           id="g476"
           transform="translate(71.6865,4.168)"><path
             d="m 0,0 c 0,-0.439 -0.356,-0.797 -0.796,-0.797 h -0.799 c -0.436,0 -0.794,0.358 -0.794,0.797 v 0.799 c 0,0.438 0.358,0.792 0.794,0.792 h 0.799 C -0.356,1.591 0,1.237 0,0.799 Z"
             style="fill:#bfbfbf;fill-opacity:1;fill-rule:nonzero;stroke:none"
             id="path478" /></g><g
           id="g480"
           transform="translate(74.6611,4.168)"><path
             d="m 0,0 c 0,-0.439 -0.356,-0.797 -0.793,-0.797 h -0.794 c -0.445,0 -0.8,0.358 -0.8,0.797 v 0.799 c 0,0.438 0.355,0.792 0.8,0.792 h 0.794 C -0.356,1.591 0,1.237 0,0.799 Z"
             style="fill:#bfbfbf;fill-opacity:1;fill-rule:nonzero;stroke:none"
             id="path482" /></g><g
           id="g484"
           transform="translate(77.6436,4.168)"><path
             d="m 0,0 c 0,-0.439 -0.36,-0.797 -0.797,-0.797 h -0.799 c -0.439,0 -0.797,0.358 -0.797,0.797 v 0.799 c 0,0.438 0.358,0.792 0.797,0.792 h 0.799 C -0.36,1.591 0,1.237 0,0.799 Z"
             style="fill:#bfbfbf;fill-opacity:1;fill-rule:nonzero;stroke:none"
             id="path486" /></g><g
           id="g488"
           transform="translate(80.6182,4.168)"><path
             d="m 0,0 c 0,-0.439 -0.357,-0.797 -0.797,-0.797 h -0.794 c -0.443,0 -0.796,0.358 -0.796,0.797 v 0.799 c 0,0.438 0.353,0.792 0.796,0.792 h 0.794 C -0.357,1.591 0,1.237 0,0.799 Z"
             style="fill:#bfbfbf;fill-opacity:1;fill-rule:nonzero;stroke:none"
             id="path490" /></g><g
           id="g492"
           transform="translate(83.5967,4.168)"><path
             d="m 0,0 c 0,-0.439 -0.362,-0.797 -0.797,-0.797 h -0.796 c -0.44,0 -0.799,0.358 -0.799,0.797 v 0.799 c 0,0.438 0.359,0.792 0.799,0.792 h 0.796 C -0.362,1.591 0,1.237 0,0.799 Z"
             style="fill:#bfbfbf;fill-opacity:1;fill-rule:nonzero;stroke:none"
             id="path494" /></g><g
           id="g496"
           transform="translate(71.6865,7.1436)"><path
             d="m 0,0 c 0,-0.438 -0.356,-0.797 -0.796,-0.797 h -0.799 c -0.436,0 -0.794,0.359 -0.794,0.797 v 0.797 c 0,0.442 0.358,0.798 0.794,0.798 h 0.799 C -0.356,1.595 0,1.239 0,0.797 Z"
             style="fill:#bfbfbf;fill-opacity:1;fill-rule:nonzero;stroke:none"
             id="path498" /></g><g
           id="g500"
           transform="translate(71.6865,10.124)"><path
             d="m 0,0 c 0,-0.444 -0.356,-0.797 -0.796,-0.797 h -0.799 c -0.436,0 -0.794,0.353 -0.794,0.797 v 0.793 c 0,0.441 0.358,0.797 0.794,0.797 h 0.799 C -0.356,1.59 0,1.234 0,0.793 Z"
             style="fill:#bfbfbf;fill-opacity:1;fill-rule:nonzero;stroke:none"
             id="path502" /></g><g
           id="g504"
           transform="translate(71.6865,13.0977)"><path
             d="m 0,0 c 0,-0.438 -0.356,-0.797 -0.796,-0.797 h -0.799 c -0.436,0 -0.794,0.359 -0.794,0.797 v 0.798 c 0,0.435 0.358,0.798 0.794,0.798 h 0.799 C -0.356,1.596 0,1.233 0,0.798 Z"
             style="fill:#bfbfbf;fill-opacity:1;fill-rule:nonzero;stroke:none"
             id="path506" /></g><g
           id="g508"
           transform="translate(71.6865,16.0791)"><path
             d="m 0,0 c 0,-0.444 -0.356,-0.797 -0.796,-0.797 h -0.799 c -0.436,0 -0.794,0.353 -0.794,0.797 v 0.792 c 0,0.44 0.358,0.796 0.794,0.796 h 0.799 C -0.356,1.588 0,1.232 0,0.792 Z"
             style="fill:#bfbfbf;fill-opacity:1;fill-rule:nonzero;stroke:none"
             id="path510" /></g><g
           id="g512"
           transform="translate(71.6865,19.0537)"><path
             d="m 0,0 c 0,-0.442 -0.356,-0.797 -0.796,-0.797 h -0.799 c -0.436,0 -0.794,0.355 -0.794,0.797 v 0.797 c 0,0.435 0.358,0.798 0.794,0.798 h 0.799 C -0.356,1.595 0,1.232 0,0.797 Z"
             style="fill:#bfbfbf;fill-opacity:1;fill-rule:nonzero;stroke:none"
             id="path514" /></g><g
           id="g516"
           transform="translate(71.6865,22.0273)"><path
             d="m 0,0 c 0,-0.438 -0.356,-0.791 -0.796,-0.791 h -0.799 c -0.436,0 -0.794,0.353 -0.794,0.791 v 0.799 c 0,0.439 0.358,0.797 0.794,0.797 h 0.799 C -0.356,1.596 0,1.238 0,0.799 Z"
             style="fill:#bfbfbf;fill-opacity:1;fill-rule:nonzero;stroke:none"
             id="path518" /></g><g
           id="g520"
           transform="translate(53.8232,4.168)"><path
             d="M 0,0 C 0,-0.439 -0.354,-0.797 -0.798,-0.797 H -1.59 c -0.44,0 -0.798,0.358 -0.798,0.797 v 0.799 c 0,0.438 0.358,0.792 0.798,0.792 h 0.792 C -0.354,1.591 0,1.237 0,0.799 Z"
             style="fill:#bfbfbf;fill-opacity:1;fill-rule:nonzero;stroke:none"
             id="path522" /></g><g
           id="g524"
           transform="translate(56.8027,4.168)"><path
             d="m 0,0 c 0,-0.439 -0.358,-0.797 -0.797,-0.797 h -0.798 c -0.435,0 -0.796,0.358 -0.796,0.797 v 0.799 c 0,0.438 0.361,0.792 0.796,0.792 h 0.798 C -0.358,1.591 0,1.237 0,0.799 Z"
             style="fill:#bfbfbf;fill-opacity:1;fill-rule:nonzero;stroke:none"
             id="path526" /></g><g
           id="g528"
           transform="translate(59.7783,4.168)"><path
             d="m 0,0 c 0,-0.439 -0.354,-0.797 -0.797,-0.797 h -0.796 c -0.437,0 -0.794,0.358 -0.794,0.797 v 0.799 c 0,0.438 0.357,0.792 0.794,0.792 h 0.796 C -0.354,1.591 0,1.237 0,0.799 Z"
             style="fill:#bfbfbf;fill-opacity:1;fill-rule:nonzero;stroke:none"
             id="path530" /></g><g
           id="g532"
           transform="translate(62.7568,4.168)"><path
             d="m 0,0 c 0,-0.439 -0.359,-0.797 -0.797,-0.797 h -0.796 c -0.44,0 -0.798,0.358 -0.798,0.797 v 0.799 c 0,0.438 0.358,0.792 0.798,0.792 h 0.796 C -0.359,1.591 0,1.237 0,0.799 Z"
             style="fill:#bfbfbf;fill-opacity:1;fill-rule:nonzero;stroke:none"
             id="path534" /></g><g
           id="g536"
           transform="translate(65.7324,4.168)"><path
             d="m 0,0 c 0,-0.439 -0.354,-0.797 -0.798,-0.797 h -0.797 c -0.435,0 -0.794,0.358 -0.794,0.797 v 0.799 c 0,0.438 0.359,0.792 0.794,0.792 h 0.797 C -0.354,1.591 0,1.237 0,0.799 Z"
             style="fill:#bfbfbf;fill-opacity:1;fill-rule:nonzero;stroke:none"
             id="path538" /></g><g
           id="g540"
           transform="translate(53.8232,7.1436)"><path
             d="M 0,0 C 0,-0.438 -0.354,-0.797 -0.798,-0.797 H -1.59 c -0.44,0 -0.798,0.359 -0.798,0.797 v 0.797 c 0,0.442 0.358,0.798 0.798,0.798 h 0.792 C -0.354,1.595 0,1.239 0,0.797 Z"
             style="fill:#bfbfbf;fill-opacity:1;fill-rule:nonzero;stroke:none"
             id="path542" /></g><g
           id="g544"
           transform="translate(53.8232,10.124)"><path
             d="M 0,0 C 0,-0.444 -0.354,-0.797 -0.798,-0.797 H -1.59 c -0.44,0 -0.798,0.353 -0.798,0.797 v 0.793 c 0,0.441 0.358,0.797 0.798,0.797 h 0.792 C -0.354,1.59 0,1.234 0,0.793 Z"
             style="fill:#bfbfbf;fill-opacity:1;fill-rule:nonzero;stroke:none"
             id="path546" /></g><g
           id="g548"
           transform="translate(53.8232,13.0977)"><path
             d="M 0,0 C 0,-0.438 -0.354,-0.797 -0.798,-0.797 H -1.59 c -0.44,0 -0.798,0.359 -0.798,0.797 v 0.798 c 0,0.435 0.358,0.798 0.798,0.798 h 0.792 C -0.354,1.596 0,1.233 0,0.798 Z"
             style="fill:#bfbfbf;fill-opacity:1;fill-rule:nonzero;stroke:none"
             id="path550" /></g><g
           id="g552"
           transform="translate(56.8027,13.0977)"><path
             d="m 0,0 c 0,-0.438 -0.358,-0.797 -0.797,-0.797 h -0.798 c -0.435,0 -0.796,0.359 -0.796,0.797 v 0.798 c 0,0.435 0.361,0.798 0.796,0.798 h 0.798 C -0.358,1.596 0,1.233 0,0.798 Z"
             style="fill:#bfbfbf;fill-opacity:1;fill-rule:nonzero;stroke:none"
             id="path554" /></g><g
           id="g556"
           transform="translate(59.7783,13.0977)"><path
             d="m 0,0 c 0,-0.438 -0.354,-0.797 -0.797,-0.797 h -0.796 c -0.437,0 -0.794,0.359 -0.794,0.797 v 0.798 c 0,0.435 0.357,0.798 0.794,0.798 h 0.796 C -0.354,1.596 0,1.233 0,0.798 Z"
             style="fill:#bfbfbf;fill-opacity:1;fill-rule:nonzero;stroke:none"
             id="path558" /></g><g
           id="g560"
           transform="translate(62.7568,13.0977)"><path
             d="m 0,0 c 0,-0.438 -0.359,-0.797 -0.797,-0.797 h -0.796 c -0.44,0 -0.798,0.359 -0.798,0.797 v 0.798 c 0,0.435 0.358,0.798 0.798,0.798 h 0.796 C -0.359,1.596 0,1.233 0,0.798 Z"
             style="fill:#bfbfbf;fill-opacity:1;fill-rule:nonzero;stroke:none"
             id="path562" /></g><g
           id="g564"
           transform="translate(65.7324,13.0977)"><path
             d="m 0,0 c 0,-0.438 -0.354,-0.797 -0.798,-0.797 h -0.797 c -0.435,0 -0.794,0.359 -0.794,0.797 v 0.798 c 0,0.435 0.359,0.798 0.794,0.798 h 0.797 C -0.354,1.596 0,1.233 0,0.798 Z"
             style="fill:#bfbfbf;fill-opacity:1;fill-rule:nonzero;stroke:none"
             id="path566" /></g><g
           id="g568"
           transform="translate(53.8232,16.0791)"><path
             d="M 0,0 C 0,-0.444 -0.354,-0.797 -0.798,-0.797 H -1.59 c -0.44,0 -0.798,0.353 -0.798,0.797 v 0.792 c 0,0.44 0.358,0.796 0.798,0.796 h 0.792 C -0.354,1.588 0,1.232 0,0.792 Z"
             style="fill:#bfbfbf;fill-opacity:1;fill-rule:nonzero;stroke:none"
             id="path570" /></g><g
           id="g572"
           transform="translate(53.8232,19.0537)"><path
             d="M 0,0 C 0,-0.442 -0.354,-0.797 -0.798,-0.797 H -1.59 c -0.44,0 -0.798,0.355 -0.798,0.797 v 0.797 c 0,0.435 0.358,0.798 0.798,0.798 h 0.792 C -0.354,1.595 0,1.232 0,0.797 Z"
             style="fill:#bfbfbf;fill-opacity:1;fill-rule:nonzero;stroke:none"
             id="path574" /></g><g
           id="g576"
           transform="translate(53.8232,22.0273)"><path
             d="M 0,0 C 0,-0.438 -0.354,-0.791 -0.798,-0.791 H -1.59 c -0.44,0 -0.798,0.353 -0.798,0.791 v 0.799 c 0,0.439 0.358,0.797 0.798,0.797 h 0.792 C -0.354,1.596 0,1.238 0,0.799 Z"
             style="fill:#bfbfbf;fill-opacity:1;fill-rule:nonzero;stroke:none"
             id="path578" /></g><g
           id="g580"
           transform="translate(56.8027,22.0273)"><path
             d="m 0,0 c 0,-0.438 -0.358,-0.791 -0.797,-0.791 h -0.798 c -0.435,0 -0.796,0.353 -0.796,0.791 v 0.799 c 0,0.439 0.361,0.797 0.796,0.797 h 0.798 C -0.358,1.596 0,1.238 0,0.799 Z"
             style="fill:#bfbfbf;fill-opacity:1;fill-rule:nonzero;stroke:none"
             id="path582" /></g><g
           id="g584"
           transform="translate(59.7783,22.0273)"><path
             d="m 0,0 c 0,-0.438 -0.354,-0.791 -0.797,-0.791 h -0.796 c -0.437,0 -0.794,0.353 -0.794,0.791 v 0.799 c 0,0.439 0.357,0.797 0.794,0.797 h 0.796 C -0.354,1.596 0,1.238 0,0.799 Z"
             style="fill:#bfbfbf;fill-opacity:1;fill-rule:nonzero;stroke:none"
             id="path586" /></g><g
           id="g588"
           transform="translate(62.7568,22.0273)"><path
             d="m 0,0 c 0,-0.438 -0.359,-0.791 -0.797,-0.791 h -0.796 c -0.44,0 -0.798,0.353 -0.798,0.791 v 0.799 c 0,0.439 0.358,0.797 0.798,0.797 h 0.796 C -0.359,1.596 0,1.238 0,0.799 Z"
             style="fill:#bfbfbf;fill-opacity:1;fill-rule:nonzero;stroke:none"
             id="path590" /></g><g
           id="g592"
           transform="translate(65.7324,22.0273)"><path
             d="m 0,0 c 0,-0.438 -0.354,-0.791 -0.798,-0.791 h -0.797 c -0.435,0 -0.794,0.353 -0.794,0.791 v 0.799 c 0,0.439 0.359,0.797 0.794,0.797 h 0.797 C -0.354,1.596 0,1.238 0,0.799 Z"
             style="fill:#bfbfbf;fill-opacity:1;fill-rule:nonzero;stroke:none"
             id="path594" /></g><g
           id="g596"
           transform="translate(41.915,4.168)"><path
             d="M 0,0 C 0,-0.439 -0.354,-0.797 -0.792,-0.797 H -1.59 c -0.443,0 -0.796,0.358 -0.796,0.797 v 0.799 c 0,0.438 0.353,0.792 0.796,0.792 h 0.798 C -0.354,1.591 0,1.237 0,0.799 Z"
             style="fill:#bfbfbf;fill-opacity:1;fill-rule:nonzero;stroke:none"
             id="path598" /></g><g
           id="g600"
           transform="translate(41.915,7.1436)"><path
             d="M 0,0 C 0,-0.438 -0.354,-0.797 -0.792,-0.797 H -1.59 c -0.443,0 -0.796,0.359 -0.796,0.797 v 0.797 c 0,0.442 0.353,0.798 0.796,0.798 h 0.798 C -0.354,1.595 0,1.239 0,0.797 Z"
             style="fill:#bfbfbf;fill-opacity:1;fill-rule:nonzero;stroke:none"
             id="path602" /></g><g
           id="g604"
           transform="translate(41.915,10.124)"><path
             d="M 0,0 C 0,-0.444 -0.354,-0.797 -0.792,-0.797 H -1.59 c -0.443,0 -0.796,0.353 -0.796,0.797 v 0.793 c 0,0.441 0.353,0.797 0.796,0.797 h 0.798 C -0.354,1.59 0,1.234 0,0.793 Z"
             style="fill:#bfbfbf;fill-opacity:1;fill-rule:nonzero;stroke:none"
             id="path606" /></g><g
           id="g608"
           transform="translate(41.915,13.0977)"><path
             d="M 0,0 C 0,-0.438 -0.354,-0.797 -0.792,-0.797 H -1.59 c -0.443,0 -0.796,0.359 -0.796,0.797 v 0.798 c 0,0.435 0.353,0.798 0.796,0.798 h 0.798 C -0.354,1.596 0,1.233 0,0.798 Z"
             style="fill:#bfbfbf;fill-opacity:1;fill-rule:nonzero;stroke:none"
             id="path610" /></g><g
           id="g612"
           transform="translate(41.915,16.0791)"><path
             d="M 0,0 C 0,-0.444 -0.354,-0.797 -0.792,-0.797 H -1.59 c -0.443,0 -0.796,0.353 -0.796,0.797 v 0.792 c 0,0.44 0.353,0.796 0.796,0.796 h 0.798 C -0.354,1.588 0,1.232 0,0.792 Z"
             style="fill:#bfbfbf;fill-opacity:1;fill-rule:nonzero;stroke:none"
             id="path614" /></g><g
           id="g616"
           transform="translate(41.915,19.0537)"><path
             d="M 0,0 C 0,-0.442 -0.354,-0.797 -0.792,-0.797 H -1.59 c -0.443,0 -0.796,0.355 -0.796,0.797 v 0.797 c 0,0.435 0.353,0.798 0.796,0.798 h 0.798 C -0.354,1.595 0,1.232 0,0.797 Z"
             style="fill:#bfbfbf;fill-opacity:1;fill-rule:nonzero;stroke:none"
             id="path618" /></g><g
           id="g620"
           transform="translate(35.9648,22.0273)"><path
             d="m 0,0 c 0,-0.438 -0.358,-0.791 -0.795,-0.791 h -0.798 c -0.442,0 -0.798,0.353 -0.798,0.791 v 0.799 c 0,0.439 0.356,0.797 0.798,0.797 h 0.798 C -0.358,1.596 0,1.238 0,0.799 Z"
             style="fill:#bfbfbf;fill-opacity:1;fill-rule:nonzero;stroke:none"
             id="path622" /></g><g
           id="g624"
           transform="translate(38.9404,22.0273)"><path
             d="m 0,0 c 0,-0.438 -0.354,-0.791 -0.798,-0.791 h -0.794 c -0.439,0 -0.795,0.353 -0.795,0.791 v 0.799 c 0,0.439 0.356,0.797 0.795,0.797 h 0.794 C -0.354,1.596 0,1.238 0,0.799 Z"
             style="fill:#bfbfbf;fill-opacity:1;fill-rule:nonzero;stroke:none"
             id="path626" /></g><g
           id="g628"
           transform="translate(41.915,22.0273)"><path
             d="M 0,0 C 0,-0.438 -0.354,-0.791 -0.792,-0.791 H -1.59 c -0.443,0 -0.796,0.353 -0.796,0.791 v 0.799 c 0,0.439 0.353,0.797 0.796,0.797 h 0.798 C -0.354,1.596 0,1.238 0,0.799 Z"
             style="fill:#bfbfbf;fill-opacity:1;fill-rule:nonzero;stroke:none"
             id="path630" /></g><g
           id="g632"
           transform="translate(44.8955,22.0273)"><path
             d="m 0,0 c 0,-0.438 -0.356,-0.791 -0.798,-0.791 h -0.798 c -0.434,0 -0.796,0.353 -0.796,0.791 v 0.799 c 0,0.439 0.362,0.797 0.796,0.797 h 0.798 C -0.356,1.596 0,1.238 0,0.799 Z"
             style="fill:#bfbfbf;fill-opacity:1;fill-rule:nonzero;stroke:none"
             id="path634" /></g><g
           id="g636"
           transform="translate(47.8682,22.0273)"><path
             d="m 0,0 c 0,-0.438 -0.354,-0.791 -0.794,-0.791 h -0.794 c -0.441,0 -0.797,0.353 -0.797,0.791 v 0.799 c 0,0.439 0.356,0.797 0.797,0.797 h 0.794 C -0.354,1.596 0,1.238 0,0.799 Z"
             style="fill:#bfbfbf;fill-opacity:1;fill-rule:nonzero;stroke:none"
             id="path638" /></g><g
           id="g640"
           transform="translate(18.1025,4.168)"><path
             d="m 0,0 c 0,-0.439 -0.356,-0.797 -0.798,-0.797 h -0.797 c -0.436,0 -0.794,0.358 -0.794,0.797 v 0.799 c 0,0.438 0.358,0.792 0.794,0.792 h 0.797 C -0.356,1.591 0,1.237 0,0.799 Z"
             style="fill:#bfbfbf;fill-opacity:1;fill-rule:nonzero;stroke:none"
             id="path642" /></g><g
           id="g644"
           transform="translate(30.0107,4.168)"><path
             d="m 0,0 c 0,-0.439 -0.36,-0.797 -0.795,-0.797 h -0.799 c -0.437,0 -0.797,0.358 -0.797,0.797 v 0.799 c 0,0.438 0.36,0.792 0.797,0.792 h 0.799 C -0.36,1.591 0,1.237 0,0.799 Z"
             style="fill:#bfbfbf;fill-opacity:1;fill-rule:nonzero;stroke:none"
             id="path646" /></g><g
           id="g648"
           transform="translate(18.1025,7.1436)"><path
             d="m 0,0 c 0,-0.438 -0.356,-0.797 -0.798,-0.797 h -0.797 c -0.436,0 -0.794,0.359 -0.794,0.797 v 0.797 c 0,0.442 0.358,0.798 0.794,0.798 h 0.797 C -0.356,1.595 0,1.239 0,0.797 Z"
             style="fill:#bfbfbf;fill-opacity:1;fill-rule:nonzero;stroke:none"
             id="path650" /></g><g
           id="g652"
           transform="translate(30.0107,7.1436)"><path
             d="m 0,0 c 0,-0.438 -0.36,-0.797 -0.795,-0.797 h -0.799 c -0.437,0 -0.797,0.359 -0.797,0.797 v 0.797 c 0,0.442 0.36,0.798 0.797,0.798 h 0.799 C -0.36,1.595 0,1.239 0,0.797 Z"
             style="fill:#bfbfbf;fill-opacity:1;fill-rule:nonzero;stroke:none"
             id="path654" /></g><g
           id="g656"
           transform="translate(18.1025,10.124)"><path
             d="m 0,0 c 0,-0.444 -0.356,-0.797 -0.798,-0.797 h -0.797 c -0.436,0 -0.794,0.353 -0.794,0.797 v 0.793 c 0,0.441 0.358,0.797 0.794,0.797 h 0.797 C -0.356,1.59 0,1.234 0,0.793 Z"
             style="fill:#bfbfbf;fill-opacity:1;fill-rule:nonzero;stroke:none"
             id="path658" /></g><g
           id="g660"
           transform="translate(27.0332,10.124)"><path
             d="m 0,0 c 0,-0.444 -0.356,-0.797 -0.796,-0.797 h -0.795 c -0.443,0 -0.797,0.353 -0.797,0.797 v 0.793 c 0,0.441 0.354,0.797 0.797,0.797 h 0.795 C -0.356,1.59 0,1.234 0,0.793 Z"
             style="fill:#bfbfbf;fill-opacity:1;fill-rule:nonzero;stroke:none"
             id="path662" /></g><g
           id="g664"
           transform="translate(30.0107,10.124)"><path
             d="m 0,0 c 0,-0.444 -0.36,-0.797 -0.795,-0.797 h -0.799 c -0.437,0 -0.797,0.353 -0.797,0.797 v 0.793 c 0,0.441 0.36,0.797 0.797,0.797 h 0.799 C -0.36,1.59 0,1.234 0,0.793 Z"
             style="fill:#bfbfbf;fill-opacity:1;fill-rule:nonzero;stroke:none"
             id="path666" /></g><g
           id="g668"
           transform="translate(18.1025,13.0977)"><path
             d="m 0,0 c 0,-0.438 -0.356,-0.797 -0.798,-0.797 h -0.797 c -0.436,0 -0.794,0.359 -0.794,0.797 v 0.798 c 0,0.435 0.358,0.798 0.794,0.798 h 0.797 C -0.356,1.596 0,1.233 0,0.798 Z"
             style="fill:#bfbfbf;fill-opacity:1;fill-rule:nonzero;stroke:none"
             id="path670" /></g><g
           id="g672"
           transform="translate(24.0596,13.0977)"><path
             d="m 0,0 c 0,-0.438 -0.36,-0.797 -0.8,-0.797 h -0.797 c -0.438,0 -0.798,0.359 -0.798,0.797 v 0.798 c 0,0.435 0.36,0.798 0.798,0.798 H -0.8 C -0.36,1.596 0,1.233 0,0.798 Z"
             style="fill:#bfbfbf;fill-opacity:1;fill-rule:nonzero;stroke:none"
             id="path674" /></g><g
           id="g676"
           transform="translate(30.0107,13.0977)"><path
             d="m 0,0 c 0,-0.438 -0.36,-0.797 -0.795,-0.797 h -0.799 c -0.437,0 -0.797,0.359 -0.797,0.797 v 0.798 c 0,0.435 0.36,0.798 0.797,0.798 h 0.799 C -0.36,1.596 0,1.233 0,0.798 Z"
             style="fill:#bfbfbf;fill-opacity:1;fill-rule:nonzero;stroke:none"
             id="path678" /></g><g
           id="g680"
           transform="translate(18.1025,16.0791)"><path
             d="m 0,0 c 0,-0.444 -0.356,-0.797 -0.798,-0.797 h -0.797 c -0.436,0 -0.794,0.353 -0.794,0.797 v 0.792 c 0,0.44 0.358,0.796 0.794,0.796 h 0.797 C -0.356,1.588 0,1.232 0,0.792 Z"
             style="fill:#bfbfbf;fill-opacity:1;fill-rule:nonzero;stroke:none"
             id="path682" /></g><g
           id="g684"
           transform="translate(21.0762,16.0791)"><path
             d="M 0,0 C 0,-0.444 -0.354,-0.797 -0.791,-0.797 H -1.59 c -0.441,0 -0.798,0.353 -0.798,0.797 v 0.792 c 0,0.44 0.357,0.796 0.798,0.796 h 0.799 C -0.354,1.588 0,1.232 0,0.792 Z"
             style="fill:#bfbfbf;fill-opacity:1;fill-rule:nonzero;stroke:none"
             id="path686" /></g><g
           id="g688"
           transform="translate(30.0107,16.0791)"><path
             d="m 0,0 c 0,-0.444 -0.36,-0.797 -0.795,-0.797 h -0.799 c -0.437,0 -0.797,0.353 -0.797,0.797 v 0.792 c 0,0.44 0.36,0.796 0.797,0.796 h 0.799 C -0.36,1.588 0,1.232 0,0.792 Z"
             style="fill:#bfbfbf;fill-opacity:1;fill-rule:nonzero;stroke:none"
             id="path690" /></g><g
           id="g692"
           transform="translate(18.1025,19.0537)"><path
             d="m 0,0 c 0,-0.442 -0.356,-0.797 -0.798,-0.797 h -0.797 c -0.436,0 -0.794,0.355 -0.794,0.797 v 0.797 c 0,0.435 0.358,0.798 0.794,0.798 h 0.797 C -0.356,1.595 0,1.232 0,0.797 Z"
             style="fill:#bfbfbf;fill-opacity:1;fill-rule:nonzero;stroke:none"
             id="path694" /></g><g
           id="g696"
           transform="translate(30.0107,19.0537)"><path
             d="m 0,0 c 0,-0.442 -0.36,-0.797 -0.795,-0.797 h -0.799 c -0.437,0 -0.797,0.355 -0.797,0.797 v 0.797 c 0,0.435 0.36,0.798 0.797,0.798 h 0.799 C -0.36,1.595 0,1.232 0,0.797 Z"
             style="fill:#bfbfbf;fill-opacity:1;fill-rule:nonzero;stroke:none"
             id="path698" /></g><g
           id="g700"
           transform="translate(18.1025,22.0273)"><path
             d="m 0,0 c 0,-0.438 -0.356,-0.791 -0.798,-0.791 h -0.797 c -0.436,0 -0.794,0.353 -0.794,0.791 v 0.799 c 0,0.439 0.358,0.797 0.794,0.797 h 0.797 C -0.356,1.596 0,1.238 0,0.799 Z"
             style="fill:#bfbfbf;fill-opacity:1;fill-rule:nonzero;stroke:none"
             id="path702" /></g><g
           id="g704"
           transform="translate(30.0107,22.0273)"><path
             d="m 0,0 c 0,-0.438 -0.36,-0.791 -0.795,-0.791 h -0.799 c -0.437,0 -0.797,0.353 -0.797,0.791 v 0.799 c 0,0.439 0.36,0.797 0.797,0.797 h 0.799 C -0.36,1.596 0,1.238 0,0.799 Z"
             style="fill:#bfbfbf;fill-opacity:1;fill-rule:nonzero;stroke:none"
             id="path706" /></g><g
           id="g708"
           transform="translate(6.1924,4.168)"><path
             d="m 0,0 c 0,-0.439 -0.352,-0.797 -0.796,-0.797 h -0.795 c -0.437,0 -0.794,0.358 -0.794,0.797 v 0.799 c 0,0.438 0.357,0.792 0.794,0.792 h 0.795 C -0.352,1.591 0,1.237 0,0.799 Z"
             style="fill:#bfbfbf;fill-opacity:1;fill-rule:nonzero;stroke:none"
             id="path710" /></g><g
           id="g712"
           transform="translate(9.1719,4.168)"><path
             d="m 0,0 c 0,-0.439 -0.357,-0.797 -0.797,-0.797 h -0.796 c -0.44,0 -0.798,0.358 -0.798,0.797 v 0.799 c 0,0.438 0.358,0.792 0.798,0.792 h 0.796 C -0.357,1.591 0,1.237 0,0.799 Z"
             style="fill:#bfbfbf;fill-opacity:1;fill-rule:nonzero;stroke:none"
             id="path714" /></g><g
           id="g716"
           transform="translate(12.1475,4.168)"><path
             d="m 0,0 c 0,-0.439 -0.353,-0.797 -0.797,-0.797 h -0.795 c -0.438,0 -0.797,0.358 -0.797,0.797 v 0.799 c 0,0.438 0.359,0.792 0.797,0.792 h 0.795 C -0.353,1.591 0,1.237 0,0.799 Z"
             style="fill:#bfbfbf;fill-opacity:1;fill-rule:nonzero;stroke:none"
             id="path718" /></g><g
           id="g720"
           transform="translate(9.1719,7.1436)"><path
             d="m 0,0 c 0,-0.438 -0.357,-0.797 -0.797,-0.797 h -0.796 c -0.44,0 -0.798,0.359 -0.798,0.797 v 0.797 c 0,0.442 0.358,0.798 0.798,0.798 h 0.796 C -0.357,1.595 0,1.239 0,0.797 Z"
             style="fill:#bfbfbf;fill-opacity:1;fill-rule:nonzero;stroke:none"
             id="path722" /></g><g
           id="g724"
           transform="translate(9.1719,10.124)"><path
             d="m 0,0 c 0,-0.444 -0.357,-0.797 -0.797,-0.797 h -0.796 c -0.44,0 -0.798,0.353 -0.798,0.797 v 0.793 c 0,0.441 0.358,0.797 0.798,0.797 h 0.796 C -0.357,1.59 0,1.234 0,0.793 Z"
             style="fill:#bfbfbf;fill-opacity:1;fill-rule:nonzero;stroke:none"
             id="path726" /></g><g
           id="g728"
           transform="translate(9.1719,13.0977)"><path
             d="m 0,0 c 0,-0.438 -0.357,-0.797 -0.797,-0.797 h -0.796 c -0.44,0 -0.798,0.359 -0.798,0.797 v 0.798 c 0,0.435 0.358,0.798 0.798,0.798 h 0.796 C -0.357,1.596 0,1.233 0,0.798 Z"
             style="fill:#bfbfbf;fill-opacity:1;fill-rule:nonzero;stroke:none"
             id="path730" /></g><g
           id="g732"
           transform="translate(9.1719,16.0791)"><path
             d="m 0,0 c 0,-0.444 -0.357,-0.797 -0.797,-0.797 h -0.796 c -0.44,0 -0.798,0.353 -0.798,0.797 v 0.792 c 0,0.44 0.358,0.796 0.798,0.796 h 0.796 C -0.357,1.588 0,1.232 0,0.792 Z"
             style="fill:#bfbfbf;fill-opacity:1;fill-rule:nonzero;stroke:none"
             id="path734" /></g><g
           id="g736"
           transform="translate(9.1719,19.0537)"><path
             d="m 0,0 c 0,-0.442 -0.357,-0.797 -0.797,-0.797 h -0.796 c -0.44,0 -0.798,0.355 -0.798,0.797 v 0.797 c 0,0.435 0.358,0.798 0.798,0.798 h 0.796 C -0.357,1.595 0,1.232 0,0.797 Z"
             style="fill:#bfbfbf;fill-opacity:1;fill-rule:nonzero;stroke:none"
             id="path738" /></g><g
           id="g740"
           transform="translate(6.1924,22.0273)"><path
             d="m 0,0 c 0,-0.438 -0.352,-0.791 -0.796,-0.791 h -0.795 c -0.437,0 -0.794,0.353 -0.794,0.791 v 0.799 c 0,0.439 0.357,0.797 0.794,0.797 h 0.795 C -0.352,1.596 0,1.238 0,0.799 Z"
             style="fill:#bfbfbf;fill-opacity:1;fill-rule:nonzero;stroke:none"
             id="path742" /></g><g
           id="g744"
           transform="translate(9.1719,22.0273)"><path
             d="m 0,0 c 0,-0.438 -0.357,-0.791 -0.797,-0.791 h -0.796 c -0.44,0 -0.798,0.353 -0.798,0.791 v 0.799 c 0,0.439 0.358,0.797 0.798,0.797 h 0.796 C -0.357,1.596 0,1.238 0,0.799 Z"
             style="fill:#bfbfbf;fill-opacity:1;fill-rule:nonzero;stroke:none"
             id="path746" /></g><g
           id="g748"
           transform="translate(12.1475,22.0273)"><path
             d="m 0,0 c 0,-0.438 -0.353,-0.791 -0.797,-0.791 h -0.795 c -0.438,0 -0.797,0.353 -0.797,0.791 v 0.799 c 0,0.439 0.359,0.797 0.797,0.797 h 0.795 C -0.353,1.596 0,1.238 0,0.799 Z"
             style="fill:#bfbfbf;fill-opacity:1;fill-rule:nonzero;stroke:none"
             id="path750" /></g></g></g></g></svg>
